<?xml version="1.0" encoding="UTF-8"?>
<svg width="200px" height="200px" viewBox="0 0 200 200" version="1.1" xmlns="http://www.w3.org/2000/svg" xmlns:xlink="http://www.w3.org/1999/xlink">
    <title>未命名</title>
    <defs>
        <linearGradient x1="50%" y1="0%" x2="50%" y2="99.569254%" id="linearGradient-1">
            <stop stop-color="#79EDAA" offset="0%"></stop>
            <stop stop-color="#44CFD7" offset="100%"></stop>
        </linearGradient>
    </defs>
    <g id="页面-1" stroke="none" stroke-width="1" fill="none" fill-rule="evenodd">
        <path d="M100,0 C155.228475,0 200,44.771525 200,100 C200,155.228475 155.228475,200 100,200 C44.771525,200 0,155.228475 0,100 C0,44.771525 44.771525,0 100,0 Z M100,45 C77.2789281,45 57.775766,58.7775098 49.3885796,78.4337009 C19.8360136,82.7776531 0,90.8097079 0,100 C0,109.190292 19.8360136,117.222347 49.3891214,121.566078 C57.775766,141.22249 77.2789281,155 100,155 C122.721072,155 142.224234,141.22249 150.61142,121.566299 C180.163986,117.222347 200,109.190292 200,100 C200,90.8097079 180.163986,82.7776531 150.610879,78.4339217 C142.224234,58.7775098 122.721072,45 100,45 Z" id="形状结合备份-2" fill="url(#linearGradient-1)"></path>
    </g>
</svg>